
        <svg xmlns="http://www.w3.org/2000/svg" xmlns:xlink="http://www.w3.org/1999/xlink" version="1.1" width="3192" 
        height="3192" viewBox="0 0 3192 3192">
			
			<g transform="scale(9.6) translate(10, 10)">
				<defs id="SvgjsDefs1481"></defs>
				<g id="SvgjsG1482" featureKey="rootContainer" transform="matrix(6.451280116834951,0,0,6.451280116834951,0,0)" fill="#111111">
					<path xmlns="http://www.w3.org/2000/svg" d="M24.22 48.44a24.22 24.22 0 1 1 24.22-24.22 24.25 24.25 0 0 1-24.22 24.22zm0-47.62a23.4 23.4 0 1 0 23.4 23.4A23.43 23.43 0 0 0 24.22.82z"></path>
					<path xmlns="http://www.w3.org/2000/svg" d="M24.22 46.19a22 22 0 1 1 22-22 22 22 0 0 1-22 22zm0-43.67a21.7 21.7 0 1 0 21.7 21.7 21.72 21.72 0 0 0-21.7-21.71z"></path>
				</g><g id="SvgjsG1483" featureKey="symbolFeature-0" transform="matrix(0.9950592271175505,0,0,0.9950592271175505,106.46132100314819,66.04703864412248)" fill="#7cb209">
				<g xmlns="http://www.w3.org/2000/svg"><circle cx="50" cy="29.518" r="8.461"></circle><polygon points="50,40.678 39.735,78.943 60.265,78.943  "></polygon></g></g>
				<g id="SvgjsG1484" featureKey="nameFeature-0" transform="matrix(1.4149474333512932,0,0,1.4149474333512932,52.60412501296772,148.07722864314258)" fill="#111111">
					<path d="M26.12 26 c0 7.6844 -5.9448 13.942 -13.32 14 l-9.76 0 c-0.36 0 -0.64 -0.32 -0.64 -0.64 l0.0012109 -0.04 c-0.00078124 -0.013203 -0.0011719 -0.026797 -0.0011719 -0.04 l0 -26.68 c0 -0.32 0.28 -0.6 0.64 -0.6 s0.64 0.28 0.64 0.6 l0 26.12 l2.4 0 l0 -26.08 c0 -0.24922 0.13398 -0.46 0.33598 -0.566 c0.080392 -0.046796 0.17039 -0.073984 0.2648 -0.073984 c0.026406 -0.0016016 0.052812 -0.0016016 0.07922 0 l5.96 0 c7.4 0 13.4 6.28 13.4 14 z M24.88 26 c0 -7.04 -5.4796 -12.76 -12.16 -12.76 l-4.616 0 l15.675 18.032 c0.706 -1.608 1.1004 -3.394 1.1004 -5.272 l-0.000039062 0 z M7.3204 17.845 l14.646 16.392 c0.4512 -0.5528 0.8584 -1.1464 1.2156 -1.7744 c-0.068788 -0.030781 -0.13199 -0.076368 -0.1816 -0.14277 l-15.68 -18.038 l0 3.5624 l0 -0.000039062 z M7.3204 38.72 l5.3996 -0.000039062 c3.2416 0 6.2008 -1.3468 8.3604 -3.56 l-13.76 -15.401 l0 18.961 z M43.987 11.96 c7.4 0 13.4 6.32 13.4 14.08 c0 7.84 -6 14.12 -13.4 14.12 s-13.44 -6.28 -13.44 -14.12 c0 -7.76 6.04 -14.08 13.44 -14.08 z M31.787000000000003 26.04 c0 3.7012 1.4808 7.0132 3.8468 9.3408 l13.193 -21.117 c-1.4828 -0.6836 -3.1196 -1.064 -4.84 -1.064 c-6.72 0 -12.2 5.8 -12.2 12.84 l0 0 z M49.907000000000004 14.84 l-13.332 21.378 c0.6504 0.5208 1.3524 0.97476 2.096 1.3516 l13.018 -21.45 c-0.554 -0.4808 -1.1488 -0.91156 -1.7824 -1.2788 l0 0.000039062 z M43.987 38.8398 c6.72 0 12.16 -5.68 12.16 -12.8 c0 -3.5172 -1.358 -6.7252 -3.5552 -9.0548 l-12.795 21.083 c1.3076 0.5 2.7188 0.772 4.19 0.772 l0 0 z M83.694 12 c0.36 0 0.68036 0.31953 0.68036 0.67952 l0 26.68 c0 0.36 -0.32 0.64 -0.69 0.64 l-0.0092188 0 l-0.0071875 0 c-0.033203 -0.0012109 -0.065588 -0.0048048 -0.1016 -0.011602 c-0.0012109 0 -0.0019922 -0.00039062 -0.0032031 -0.00039062 c-0.15039 -0.028789 -0.28641 -0.10598 -0.38562 -0.21476 l-0.083204 -0.092812 l-14.92 -24.633 l0 5.0328 l11.8 18.92 c0.2 0.32 0.12 0.72 -0.2 0.92 c-0.12 0.04 -0.24 0.08 -0.36 0.08 c-0.2 0 -0.44 -0.12 -0.56 -0.32 l-10.68 -17.088 l0 16.688 c0 0.10281 -0.026406 0.19922 -0.071992 0.28442 c-0.083204 0.25602 -0.32 0.43564 -0.6084 0.43564 l-3.8 0 c-0.36 0 -0.68 -0.28 -0.68 -0.64 l0.0012109 -0.04078 c-0.00078124 -0.013203 -0.0011719 -0.026016 -0.0011719 -0.039219 l0 -26.6 c0 -0.36 0.28 -0.68 0.68 -0.68 c0.36 0 0.64 0.32 0.64 0.68 l0 26 l2.48 0 l0 -26 c0 -0.36 0.32 -0.68 0.68 -0.68 l0.20602 0.035195 c0.12801 0.036016 0.24359 0.11242 0.32 0.22641 l0.10441 0.17442 l14.89 24.522 l0 -24.278 c0 -0.36 0.32 -0.68 0.68 -0.68 z M111.185 12.498000000000001 c0.06078 0.0984 0.096056 0.2152 0.096056 0.34199 l-0.00039062 16.373 c-0.027188 6.0956 -4.7768 11.027 -10.64 11.027 c-5.8232 0 -10.612 -4.9312 -10.64 -11.04 l0 -16.36 c0 -0.36 0.28 -0.64 0.64 -0.64 c0.4 0 0.68 0.28 0.68 0.64 l0 16.14 l18.8 -16.78 c0.28 -0.24 0.68 -0.24 0.92 0.04 c0.067616 0.078788 0.11602 0.1668 0.14441 0.2584 z M91.641 30.4804 l-0.21957 0.11562 c0.12719 0.9024 0.37238 1.7652 0.71796 2.5708 l17.822 -15.497 l0 -3.5792 z M100.64099999999999 38.96 c5.16 0 9.32 -4.36 9.32 -9.76 l0 -9.8032 l-17.195 14.99 c1.6572 2.7452 4.5752 4.5732 7.8752 4.5732 z M143.108 12 c0.36 0 0.64 0.28043 0.64 0.64044 l0 26.68 c0 0.36 -0.28 0.68 -0.64 0.68 c-0.4 0 -0.68 -0.32 -0.68 -0.68 l0 -17.703 l-11.68 9.7028 c-0.12 0.12 -0.28 0.16 -0.4 0.16 c-0.1684 0 -0.33641 -0.056796 -0.4572 -0.17 l-0.062812 -0.030391 l-11.6 -9.6604 l0 17.7 c0 0.36 -0.28 0.68 -0.64 0.68 c-0.4 0 -0.68 -0.32 -0.68 -0.68 l0 -26.68 c0 -0.36 0.28 -0.64 0.68 -0.64 c0.36 0 0.64 0.28 0.64 0.64 l0 2.1088 l12.1 10.372 l12.1 -10.338 l0 -2.1428 c0 -0.36 0.28 -0.64 0.68 -0.64 z M142.428 19.88 l-0.000039062 -3.3759 l-11.68 10.017 c-0.12 0.08 -0.28 0.16 -0.44 0.16 c-0.15398 0 -0.3452 -0.074412 -0.4664 -0.22281 l-11.614 -9.9544 l0 3.3436 l12.104 10.081 z"></path>
				</g>
				<g id="SvgjsG1485" featureKey="sloganFeature-0" transform="matrix(0.6631551382398663,0,0,0.6631551382398663,78.33684549419416,212.4800103482017)" fill="#fff">
					<path d="M1 20 l0 -16 l1.8 0 l2.1 10 l0.2 0 l2.1 -10 l1.8 0 l0 16 l-2 0 l0 -8 l-1.42 8 l-1.2 0 l-1.38 -8 l0 8 l-2 0 z M11.75 20 l0 -8.4 c0 -5.58 0 -7.78 3 -7.78 s3 2.2 3 7.78 l0 8.4 l-2 0 l0 -4.6 l-2 0 l0 4.6 l-2 0 z M13.75 13.8 l2 0 l0 -2.2 c0 -5.2 0 -6.18 -1 -6.18 s-1 0.98 -1 6.18 l0 2.2 z M20.5 20 l0 -16 l2 0 l0 6.34 l2 -6.34 l2 0 l-2.4 7.6 l2.4 8.4 l-2 0 l-2 -7 l0 7 l-2 0 z M28.45 20 l0 -16 l2 0 l0 16 l-2 0 z M33.2 20 l0 -16 l1.8 0 l2.62 9.8 l-0.02 -0.2 l0 -9.6 l2 0 l0 16 l-1.8 0 l-2.62 -8.8 l0.02 0.2 l0 8.6 l-2 0 z M42.15 11.58 c0 -5.58 0 -7.78 3 -7.78 c2.28 0 2.82 1.26 2.96 4.28 l-1.86 0 c-0.08 -2.18 -0.3 -2.68 -1.1 -2.68 c-1.12 0 -1.12 0.98 -1.12 6.18 c0 5.78 0 6.62 1.12 6.62 c1.06 0 1.12 -0.76 1.12 -5 l-1.32 0 l0 -1.6 l3.2 0 l0 0.78 c0 5.6 0 7.82 -3 7.82 s-3 -2.22 -3 -8.62 z M54.85 5.800000000000001 l0 -1.8 l6 0 l0 1.8 l-2 0 l0 14.2 l-2 0 l0 -14.2 l-2 0 z M62.8 20 l0 -16 l2 0 l0 6.8 l2 0 l0 -6.8 l2 0 l0 16 l-2 0 l0 -7.6 l-2 0 l0 7.6 l-2 0 z M71.55 20 l0 -16 l4.6 0 l0 1.6 l-2.6 0 l0 5.2 l2.2 0 l0 1.6 l-2.2 0 l0 5.6 l2.6 0 l0 2 l-4.6 0 z M83.05 4 l2.1 0 l0.6 12.04 l0.2 0 l1.2 -12.04 l1.7 0 l1.2 12.04 l0.2 0 l0.6 -12.04 l2.1 0 l-1.4 16 l-2.4 0 l-1.14 -8.36 l-1.16 8.36 l-2.4 0 z M95.1 11.58 c0 -5.58 0.12 -7.78 3.12 -7.78 s3.12 2.2 3.12 7.78 c0 6.4 -0.12 8.62 -3.12 8.62 s-3.12 -2.22 -3.12 -8.62 z M97.1 11.58 c0 5.78 0 6.62 1.12 6.62 s1.12 -0.84 1.12 -6.62 c0 -5.2 0 -6.18 -1.12 -6.18 s-1.12 0.98 -1.12 6.18 z M103.89 20 l0 -16 l3.24 0 c2.06 0 2.76 1.26 2.76 3.68 c0 2.18 -0.26 3.42 -0.88 4.02 l0 0.12 c0.52 0.18 0.68 1.12 0.88 3.46 l0.4 4.72 l-2 0 l-0.26 -4.72 c-0.14 -2.38 -0.5 -2.88 -1.1 -2.88 l-1.04 0 l0 7.6 l-2 0 z M105.89 10.8 l1.24 0 c0.7 0 0.9 -0.7 0.9 -3.12 c0 -1.58 -0.3 -2.08 -0.9 -2.08 l-1.24 0 l0 5.2 z M112.64 20 l0 -16 l2 0 l0 14 l2.6 0 l0 2 l-4.6 0 z M119.19 20 l0 -16 l3 0 c3 0 3 2.2 3 7.58 c0 6.2 0 8.42 -3 8.42 l-3 0 z M121.19 18 l1 0 c1.12 0 1.12 -0.84 1.12 -6.42 c0 -5 0 -5.98 -1.12 -5.98 l-1 0 l0 12.4 z M132.89 20 l0 -8.4 c0 -5.58 0 -7.78 3 -7.78 s3 2.2 3 7.78 l0 8.4 l-2 0 l0 -4.6 l-2 0 l0 4.6 l-2 0 z M134.89 13.8 l2 0 l0 -2.2 c0 -5.2 0 -6.18 -1 -6.18 s-1 0.98 -1 6.18 l0 2.2 z M146.79 20 l0 -16 l3.04 0 c2.06 0 2.74 1.28 2.74 3.58 l0 0.42 c0 1.38 -0.32 2.46 -0.68 3.24 l0 0.08 c0.74 0.62 1.2 1.84 1.3 3.96 l0 0.64 c-0.16 2.82 -0.9 4.08 -2.96 4.08 l-3.44 0 z M148.79 10.8 l1.04 0 c0.56 0 0.96 -0.66 0.96 -2.8 l0 -0.42 c0 -1.54 -0.36 -1.98 -0.96 -1.98 l-1.04 0 l0 5.2 z M148.79 18 l1.44 0 c0.6 0 1.02 -0.5 1.1 -2.08 l0 -0.64 c-0.08 -2.38 -0.5 -2.88 -1.1 -2.88 l-1.44 0 l0 5.6 z M155.34 20 l0 -16 l4.6 0 l0 1.6 l-2.6 0 l0 5.2 l2.2 0 l0 1.6 l-2.2 0 l0 5.6 l2.6 0 l0 2 l-4.6 0 z M161.29 5.800000000000001 l0 -1.8 l6 0 l0 1.8 l-2 0 l0 14.2 l-2 0 l0 -14.2 l-2 0 z M168.44 5.800000000000001 l0 -1.8 l6 0 l0 1.8 l-2 0 l0 14.2 l-2 0 l0 -14.2 l-2 0 z M176.39000000000001 20 l0 -16 l4.6 0 l0 1.6 l-2.6 0 l0 5.2 l2.2 0 l0 1.6 l-2.2 0 l0 5.6 l2.6 0 l0 2 l-4.6 0 z M183.14000000000001 20 l0 -16 l3.24 0 c2.06 0 2.76 1.26 2.76 3.68 c0 2.18 -0.26 3.42 -0.88 4.02 l0 0.12 c0.52 0.18 0.68 1.12 0.88 3.46 l0.4 4.72 l-2 0 l-0.26 -4.72 c-0.14 -2.38 -0.5 -2.88 -1.1 -2.88 l-1.04 0 l0 7.6 l-2 0 z M185.14000000000001 10.8 l1.24 0 c0.7 0 0.9 -0.7 0.9 -3.12 c0 -1.58 -0.3 -2.08 -0.9 -2.08 l-1.24 0 l0 5.2 z M197.04000000000002 20 l0 -16 l3.24 0 c2.06 0 2.6 1.26 2.76 4.28 l0 0.64 c-0.16 3.02 -0.7 4.28 -2.76 4.28 l-1.24 0 l0 6.8 l-2 0 z M199.04000000000002 11.6 l1.24 0 c0.6 0 0.82 -0.5 0.9 -2.68 l0 -0.64 c-0.08 -2.18 -0.3 -2.68 -0.9 -2.68 l-1.24 0 l0 6 z M205.19000000000003 20 l0 -16 l2 0 l0 14 l2.6 0 l0 2 l-4.6 0 z M211.74000000000004 20 l0 -8.4 c0 -5.58 0 -7.78 3 -7.78 s3 2.2 3 7.78 l0 8.4 l-2 0 l0 -4.6 l-2 0 l0 4.6 l-2 0 z M213.74000000000004 13.8 l2 0 l0 -2.2 c0 -5.2 0 -6.18 -1 -6.18 s-1 0.98 -1 6.18 l0 2.2 z M220.29000000000005 11.58 c0 -5.58 0 -7.78 2.8 -7.78 c2.06 0 2.62 1.26 2.76 4.28 l-1.86 0 c-0.08 -2.18 -0.3 -2.68 -0.9 -2.68 c-0.92 0 -0.92 0.98 -0.92 6.18 c0 5.78 0 6.62 0.92 6.62 c0.66 0 0.86 -0.5 0.9 -3.08 l1.88 0 c-0.12 3.7 -0.62 5.08 -2.78 5.08 c-2.8 0 -2.8 -2.22 -2.8 -8.62 z M228.02000000000004 20 l0 -16 l4.6 0 l0 1.6 l-2.6 0 l0 5.2 l2.2 0 l0 1.6 l-2.2 0 l0 5.6 l2.6 0 l0 2 l-4.6 0 z"></path>
				</g>
			</g>
		</svg>
	